<?xml version="1.0" standalone="no"?>
<!DOCTYPE svg PUBLIC "-//W3C//DTD SVG 20010904//EN"
 "http://www.w3.org/TR/2001/REC-SVG-20010904/DTD/svg10.dtd">
<svg version="1.0" xmlns="http://www.w3.org/2000/svg"
 width="300.000000pt" height="300.000000pt" viewBox="0 0 300.000000 300.000000"
 preserveAspectRatio="xMidYMid meet">
<metadata>
Created by potrace 1.10, written by Peter Selinger 2001-2011
</metadata>
<g transform="translate(0.000000,300.000000) scale(0.100000,-0.100000)"
fill="#000000" stroke="none">
<path d="M1350 2989 c-165 -9 -329 -48 -441 -104 l-45 -23 -70 34 c-87 43
-191 66 -239 53 -40 -11 -51 -38 -40 -96 8 -42 58 -148 82 -175 15 -17 13 -18
-43 -18 -154 0 -362 -101 -503 -244 -66 -67 -63 -73 47 -107 57 -17 101 -23
173 -24 l96 0 -48 -55 c-143 -160 -248 -378 -286 -595 -21 -122 -13 -356 16
-473 71 -283 243 -535 494 -724 27 -20 54 -39 60 -41 5 -1 -6 -27 -26 -56 -41
-59 -67 -135 -67 -192 0 -94 55 -130 204 -136 71 -3 97 -1 86 6 -25 17 2 36
28 20 17 -10 23 -10 36 0 13 11 20 9 42 -8 25 -19 39 -21 185 -21 227 0 322
26 336 93 5 27 7 27 83 27 77 0 78 0 83 -29 13 -66 113 -92 339 -90 136 1 161
3 180 19 18 14 27 15 45 7 17 -8 27 -7 35 1 19 19 31 14 25 -9 -6 -21 -4 -22
91 -17 105 5 146 20 181 64 41 52 20 170 -48 266 l-38 55 60 44 c142 102 313
304 393 461 147 290 165 664 47 963 -57 144 -138 277 -229 375 l-42 45 96 0
c73 1 117 7 174 24 110 34 113 40 47 107 -141 143 -348 244 -499 244 -31 0
-59 3 -62 6 -4 3 6 24 21 47 58 88 81 192 48 224 -33 33 -149 16 -265 -39
l-63 -30 -57 25 c-181 81 -418 113 -722 96z m424 -96 c87 -82 72 -120 -64
-160 -100 -29 -138 -50 -170 -94 -41 -57 -55 -112 -41 -160 13 -43 72 -99 104
-99 19 0 15 6 -26 45 -42 41 -47 50 -47 91 0 88 49 140 165 179 108 36 132 50
150 85 26 51 -3 103 -80 143 -30 16 -30 16 -5 17 36 0 177 -35 241 -60 30 -12
65 -26 78 -31 l24 -10 -21 -22 c-88 -94 34 -244 180 -221 24 4 53 13 65 21 15
10 27 11 40 5 10 -5 45 -10 78 -10 142 -2 294 -74 449 -210 21 -18 36 -35 34
-37 -2 -3 -37 -11 -77 -20 -90 -19 -203 -19 -256 0 -47 17 -75 19 -75 5 0 -6
9 -52 21 -103 27 -122 30 -297 6 -386 -37 -137 -119 -265 -256 -401 -68 -68
-264 -220 -283 -220 -2 0 -3 26 -4 58 0 154 -141 294 -349 347 -77 19 -234 19
-310 0 -205 -53 -346 -193 -348 -344 l0 -60 -27 15 c-61 37 -189 139 -258 205
-131 129 -208 247 -252 385 -28 87 -30 270 -4 384 28 128 28 130 8 130 -11 0
-37 -7 -59 -15 -53 -19 -166 -19 -256 0 -40 9 -75 17 -77 20 -2 2 13 19 34 37
155 137 308 208 450 210 34 0 67 4 74 8 8 5 24 1 39 -8 36 -24 138 -22 182 4
70 41 102 137 63 192 -15 22 -14 23 31 42 170 73 326 99 582 98 l192 -2 55
-53z m-1043 -20 c94 -37 149 -83 149 -127 0 -83 -112 -136 -190 -90 -56 33
-146 210 -124 245 10 17 80 4 165 -28z m1685 -9 c-8 -59 -59 -156 -103 -194
-37 -33 -84 -39 -141 -19 -62 22 -84 108 -38 154 47 47 186 103 260 104 28 1
29 1 22 -45z m-2018 -655 c-19 -84 -16 -292 6 -364 22 -74 88 -207 129 -260
211 -274 581 -507 882 -555 143 -23 327 19 525 121 377 193 630 486 673 780
10 75 1 243 -18 319 -6 21 0 18 34 -20 193 -214 296 -463 308 -746 4 -81 1
-163 -6 -215 -14 -93 -66 -259 -106 -340 -80 -160 -229 -337 -378 -451 l-77
-59 -33 24 c-55 42 -110 65 -196 82 -95 20 -187 11 -285 -25 -129 -49 -244
-175 -262 -289 l-7 -41 -77 0 -77 0 -6 38 c-21 127 -149 257 -301 304 -152 47
-332 18 -457 -74 -33 -25 -40 -22 -158 77 -236 196 -380 441 -437 741 -22 116
-15 334 15 445 30 116 76 227 133 323 51 86 176 251 184 243 3 -2 -1 -28 -8
-58z m1257 -613 c200 -53 325 -202 293 -350 -9 -43 -10 -44 -100 -86 -253
-117 -422 -117 -695 2 -100 43 -103 46 -103 137 0 71 30 130 96 190 60 55 136
94 214 110 30 6 64 13 75 15 32 8 166 -3 220 -18z m-570 -1121 c123 -32 217
-107 266 -210 33 -68 39 -144 14 -169 -28 -28 -88 -38 -270 -45 -99 -4 -182
-6 -184 -5 -6 5 18 188 33 244 13 49 13 57 0 70 -14 13 -19 11 -51 -25 -46
-52 -92 -149 -106 -225 l-12 -60 -37 0 c-65 0 -134 20 -158 45 -20 21 -22 31
-16 72 29 222 280 370 521 308z m1057 4 c167 -35 294 -161 314 -312 6 -41 4
-51 -16 -72 -24 -25 -93 -45 -159 -45 l-37 0 -13 66 c-16 78 -57 165 -105 220
-31 35 -36 37 -50 24 -14 -13 -14 -21 -1 -70 17 -65 38 -230 31 -238 -10 -9
-288 -2 -351 9 -32 6 -72 17 -88 26 -28 14 -29 17 -25 76 13 214 256 367 500
316z m-1240 -234 c-2 -19 -8 -35 -12 -35 -11 0 -21 -47 -22 -109 -1 -42 -5
-51 -20 -51 -12 0 -18 7 -18 21 0 31 40 182 52 197 18 21 24 13 20 -23z m1255
-40 c12 -37 25 -87 29 -111 6 -40 4 -44 -15 -44 -19 0 -21 6 -21 58 0 31 -6
68 -13 82 -21 40 -29 92 -14 88 6 -3 22 -35 34 -73z"/>
<path d="M2233 2563 c-7 -12 -13 -45 -13 -73 0 -58 -10 -82 -53 -127 -37 -39
-30 -52 14 -27 52 30 70 78 67 170 -3 69 -5 76 -15 57z"/>
<path d="M1045 2427 c-62 -21 -97 -42 -138 -84 -143 -142 -101 -351 90 -445
59 -29 75 -32 152 -32 67 0 97 5 135 22 197 89 253 293 121 440 -66 73 -136
105 -239 109 -49 2 -97 -2 -121 -10z m231 -59 c23 -11 61 -38 84 -61 152 -154
24 -397 -210 -397 -85 0 -147 25 -206 84 -58 58 -79 119 -68 192 13 88 108
185 193 200 20 3 41 7 46 9 22 9 122 -8 161 -27z"/>
<path d="M1157 2170 c-33 -26 -41 -63 -22 -100 19 -36 43 -50 90 -50 47 0 71
14 90 50 31 61 -13 120 -90 120 -27 0 -51 -7 -68 -20z m105 -37 c22 -20 23
-37 2 -57 -30 -30 -94 -10 -94 29 0 20 29 45 52 45 12 0 30 -7 40 -17z"/>
<path d="M1743 2426 c-131 -41 -213 -147 -213 -276 0 -79 21 -129 79 -188 65
-66 137 -95 241 -96 72 -1 94 3 142 26 165 77 230 234 159 381 -62 127 -256
200 -408 153z m231 -55 c124 -55 187 -188 141 -299 -24 -56 -92 -119 -153
-142 -183 -69 -382 46 -382 220 0 115 81 208 207 240 50 12 137 4 187 -19z"/>
<path d="M1715 2165 c-58 -57 -15 -145 71 -145 60 0 98 33 98 85 0 52 -38 85
-100 85 -34 0 -51 -6 -69 -25z m109 -31 c9 -8 16 -22 16 -29 0 -20 -29 -45
-52 -45 -23 0 -58 26 -58 43 0 19 33 47 56 47 12 0 30 -7 38 -16z"/>
<path d="M2512 2042 c-26 -128 -155 -331 -284 -448 -29 -26 -89 -74 -133 -107
-77 -57 -97 -77 -77 -77 19 0 158 106 235 179 166 158 286 369 275 483 -2 28
-5 23 -16 -30z"/>
<path d="M598 1634 c14 -26 126 -132 195 -182 69 -51 166 -106 174 -98 8 8 11
5 -72 57 -92 57 -177 121 -249 189 -32 30 -54 46 -48 34z"/>
<path d="M2672 2100 c-23 -37 -38 -88 -28 -97 8 -8 58 105 53 120 -2 7 -13 -3
-25 -23z"/>
<path d="M2640 1910 c0 -10 10 -25 23 -31 26 -14 131 -38 167 -38 24 0 24 0 6
14 -10 8 -42 19 -71 25 -28 6 -68 20 -88 30 -37 20 -37 20 -37 0z"/>
<path d="M2612 1794 c-58 -304 -336 -608 -717 -785 -36 -17 -74 -32 -83 -34
-30 -6 -90 -34 -97 -45 -15 -24 129 26 250 88 214 108 421 282 532 447 53 79
77 126 101 205 18 60 39 190 30 190 -2 0 -9 -30 -16 -66z"/>
<path d="M130 1781 c0 -9 42 -48 97 -89 44 -33 64 -82 80 -192 20 -136 57
-209 131 -258 47 -31 60 -45 71 -81 19 -59 6 -111 -31 -129 -40 -19 -96 9
-218 108 -55 44 -104 80 -110 80 -6 0 -23 7 -38 16 -30 19 30 -36 147 -134
149 -125 234 -144 276 -62 26 51 15 149 -23 192 -8 10 -34 27 -58 38 -24 12
-52 36 -63 53 -25 42 -48 126 -56 207 -8 81 -35 138 -85 184 -43 38 -120 82
-120 67z"/>
<path d="M2863 1638 c-7 -42 -26 -117 -42 -167 -16 -50 -27 -91 -25 -91 3 0
18 28 34 62 36 76 52 149 48 220 l-3 53 -12 -77z"/>
<path d="M556 1505 c55 -94 166 -218 267 -299 52 -43 81 -40 31 2 -17 15 -59
51 -93 80 -55 48 -135 134 -200 217 l-23 30 18 -30z"/>
<path d="M2875 1428 c-22 -18 -58 -50 -80 -71 -55 -51 -114 -67 -254 -67 -238
-1 -278 -65 -184 -298 l46 -117 6 -172 c5 -148 9 -175 24 -190 17 -17 18 -16
11 37 -5 30 -8 115 -8 188 l0 132 81 83 c82 83 166 192 218 281 16 27 60 81
97 120 38 39 76 79 85 88 27 30 0 20 -42 -14z m-136 -155 c-33 -89 -277 -383
-316 -383 -7 0 -13 10 -13 23 0 12 -16 64 -35 115 -71 187 -39 227 185 234 91
3 133 9 155 21 17 9 31 16 32 17 1 0 -2 -12 -8 -27z"/>
<path d="M905 1175 c-17 -16 -25 -35 -25 -59 0 -42 22 -60 147 -117 252 -116
305 -154 354 -256 46 -96 65 -121 109 -143 84 -43 227 -14 294 60 63 70 46
131 -65 233 -41 37 -79 80 -86 95 l-12 27 -1 -28 c0 -16 5 -37 10 -47 9 -17 6
-21 -16 -26 -51 -13 -207 3 -286 30 -98 33 -254 107 -336 160 -57 37 -63 44
-58 69 7 33 2 34 -29 2z m87 -87 c223 -139 448 -208 614 -190 l71 8 49 -57
c70 -82 77 -130 27 -177 -55 -51 -158 -75 -225 -53 -46 15 -70 42 -113 128
-50 100 -98 138 -299 239 -155 77 -216 118 -216 145 0 14 2 13 92 -43z"/>
<path d="M140 1163 c0 -19 77 -126 132 -184 194 -203 465 -361 693 -404 48 -9
89 -14 93 -11 3 3 -3 6 -14 6 -10 0 -71 18 -135 39 -294 99 -528 262 -714 496
-26 33 -49 62 -51 64 -2 2 -4 0 -4 -6z"/>
<path d="M2306 799 c-93 -66 -240 -140 -354 -179 -273 -93 -497 -110 -852 -65
-19 3 10 -6 65 -20 82 -21 125 -25 242 -26 78 0 157 2 175 5 18 3 56 8 83 11
128 15 330 78 466 145 120 59 234 132 249 159 16 30 4 25 -74 -30z"/>
<path d="M1287 1452 c-10 -10 -17 -35 -17 -56 0 -76 106 -138 154 -90 35 34 9
122 -44 149 -39 20 -73 19 -93 -3z m98 -55 c33 -47 6 -83 -39 -53 -29 19 -42
52 -26 70 14 18 47 9 65 -17z"/>
<path d="M1622 1450 c-58 -36 -77 -126 -32 -150 86 -46 197 83 130 150 -25 25
-56 25 -98 0z m73 -69 c-8 -27 -50 -55 -70 -47 -34 12 -10 73 35 88 23 8 43
-16 35 -41z"/>
<path d="M1875 1348 c-44 -26 -199 -87 -262 -105 -48 -13 -101 -18 -183 -18
-108 1 -122 3 -232 42 -121 41 -160 40 -65 -1 86 -38 213 -66 301 -66 77 0
115 7 248 44 70 20 201 80 218 101 15 18 3 19 -25 3z"/>
</g>
</svg>
